<svg id="svg4201" xmlns:rdf="http://www.w3.org/1999/02/22-rdf-syntax-ns#" xmlns="http://www.w3.org/2000/svg" height="357" width="178" version="1.1" xmlns:cc="http://creativecommons.org/ns#" xmlns:dc="http://purl.org/dc/elements/1.1/" viewBox="0 0 178.271 356.54099">
	<g id="layer1" transform="translate(0 -696)">
		<g id="g57" transform="matrix(4.68 0 0 4.68 89.1 874)">
			<path id="path59" d="m0 0m0-38.1c-10.5 0-19 8.53-19 19v38.1c0 10.5 8.53 19 19 19s19-8.53 19-19v-38.1c0-10.5-8.53-19-19-19zm0 38.1m6.35 19v0.023c0 3.51-2.84 6.35-6.35 6.35s-6.35-2.84-6.35-6.35c0-0.007 0.001-0.015 0.001-0.023h-0.001v-38.1c0-3.51 2.84-6.35 6.35-6.35s6.35 2.84 6.35 6.35v38.1z"/>
		</g>
	</g>
</svg>
