<svg id="svg4201" xmlns:rdf="http://www.w3.org/1999/02/22-rdf-syntax-ns#" xmlns="http://www.w3.org/2000/svg" height="357" width="238" version="1.1" xmlns:cc="http://creativecommons.org/ns#" xmlns:dc="http://purl.org/dc/elements/1.1/" viewBox="0 0 237.69701 356.54099">
	<g id="layer1" transform="translate(0 -696)">
		<g id="g49" transform="matrix(4.68 0 0 4.68 119 874)">
			<path id="path51" d="m0 0m12.7-38.1v44.8 15.6h-0.001c0 0.008 0.001 0.016 0.001 0.023 0 1.75-1.42 3.18-3.18 3.18-1.75 0-3.18-1.42-3.18-3.18 0-0.007 0.002-0.015 0.002-0.023h-0.002v-15.6-44.8h-12.7v44.8 15.6h-0.002c0 0.008 0.002 0.016 0.002 0.023 0 1.75-1.42 3.18-3.17 3.18s-3.18-1.42-3.18-3.18v-0.023-15.6-44.8h-12.7v60.3 0.127h0.004c0.069 8.71 7.15 15.7 15.9 15.7 3.57 0 6.87-1.18 9.52-3.17 2.65 1.99 5.95 3.17 9.52 3.17 8.72 0 15.8-7.04 15.9-15.7h0.004v-0.127-60.3h-12.7z"/>
		</g>
	</g>
</svg>
